<?xml version="1.0" standalone="no"?>
<!DOCTYPE svg PUBLIC "-//W3C//DTD SVG 20010904//EN"
 "http://www.w3.org/TR/2001/REC-SVG-20010904/DTD/svg10.dtd">
<svg version="1.0" xmlns="http://www.w3.org/2000/svg"
 width="133.000000pt" height="133.000000pt" viewBox="0 0 133.000000 133.000000"
 preserveAspectRatio="xMidYMid meet">
<metadata>
Created by potrace 1.11, written by Peter Selinger 2001-2013
</metadata>
<g transform="translate(0.000000,133.000000) scale(0.100000,-0.100000)"
fill="#000000" stroke="none">
<path d="M642 1158 c-89 -95 -160 -173 -158 -175 3 -3 267 57 273 61 4 3 52
281 49 283 -1 2 -75 -75 -164 -169z"/>
<path d="M853 1193 c-12 -71 -20 -130 -17 -132 4 -4 199 28 222 36 8 4 12 36
12 114 l0 109 -98 0 -97 0 -22 -127z"/>
<path d="M925 967 c-60 -11 -111 -21 -113 -22 -1 -1 -14 -67 -28 -146 l-25
-144 58 -320 58 -320 98 -3 97 -3 0 491 c0 460 -1 490 -17 489 -10 -1 -67 -11
-128 -22z"/>
<path d="M590 911 l-124 -27 109 -88 110 -88 7 29 c31 120 45 203 34 202 -6 0
-67 -13 -136 -28z"/>
<path d="M313 810 l-53 -57 82 -117 c44 -64 82 -115 84 -113 4 3 -54 339 -58
342 -2 1 -27 -24 -55 -55z"/>
<path d="M461 805 c-1 -29 45 -325 51 -330 2 -3 32 33 65 78 l60 83 -88 95
c-64 68 -88 88 -88 74z"/>
<path d="M605 469 c-38 -49 -69 -92 -68 -96 3 -11 246 -353 249 -350 3 3 -103
528 -108 532 -1 1 -34 -37 -73 -86z"/>
</g>
</svg>
